<?xml version="1.0" encoding="UTF-8"?>
<svg width="209px" height="67px" viewBox="0 0 209 67" version="1.1" xmlns="http://www.w3.org/2000/svg" xmlns:xlink="http://www.w3.org/1999/xlink">
    <!-- Generator: Sketch 63.1 (92452) - https://sketch.com -->
    <title>Artboard</title>
    <desc>Created with Sketch.</desc>
    <g id="Artboard" stroke="none" stroke-width="1" fill="none" fill-rule="evenodd">
        <g id="logo-white" transform="translate(12.000000, 15.000000)" fill-rule="nonzero">
            <path d="M38.51,37.75 L30.75,32.75 C34.2739431,30.3416532 36.3810311,26.348291 36.38,22.08 C36.3033972,16.3021529 32.2735119,11.3311559 26.6364748,10.0610387 C20.9994378,8.79092144 15.2270924,11.5533146 12.68,16.74 C11.9787932,16.5990531 11.2652309,16.5287019 10.55,16.53 C4.69321869,16.6708888 0.014564147,21.4515425 -7.05664319e-05,27.31 C-0.0113711057,30.397178 1.35202706,33.329217 3.72,35.31 C5.4321988,36.940311 7.70577947,37.85 10.07,37.85 L38.51,37.75 Z" id="Path" fill="#E7BD20"></path>
            <path d="M47.17,16.34 L47.1,2.11 C47.1053608,1.55050261 46.8861569,1.01221815 46.4914553,0.615636942 C46.0967536,0.21905573 45.5595165,-0.00270282561 45,-2.44201641e-05 L11.43,-2.44201641e-05 C10.8704295,0.00422660555 10.3337039,0.222495008 9.93,0.61 C9.53393195,1.00400183 9.31393672,1.54136722 9.31987791,2.1 L9.45,26 C9.45526378,26.5560643 9.68191423,27.0871044 10.0797926,27.4755989 C10.477671,27.8640933 11.0139685,28.0780071 11.57,28.070217 L17.9,28.070217 L19.9,23.89 L13.6,23.89 L13.54,4.17 L42.9,4.17" id="Path" fill="#FFFFFF"></path>
            <path d="M10.61,26.52 C11.0581836,27.4437518 11.974506,28.0495215 13,28.1 L21.08,28.1 L22.92,24.33 L22.92,23.94 L22.92,23.87 L13.38,23.87 L10.61,26.52 Z" id="Path" fill="#FFFFFF"></path>
            <path d="M42.9,3.58 L42.9,15.89 L47.16,17 L47.1,3.37 C47.0965771,2.99715812 47.0148087,2.6292006 46.86,2.29 L42.9,3.58 Z" id="Path" fill="#FFFFFF"></path>
            <path d="M51.29,23.17 C50.6098921,18.510943 46.9795758,14.8352018 42.3293357,14.0972139 C37.6790956,13.3592261 33.0891377,15.7304191 31,19.95 C30.455616,19.8505846 29.903387,19.8003819 29.35,19.8 C26.9492207,19.7786589 24.6394297,20.7174408 22.9342601,22.4075869 C21.2290906,24.0977329 20.2699051,26.3991258 20.27,28.8 L20.27,28.8 C20.27,29.31 20.27,37.52 11.11,37.69 L11.11,37.76 L50.8,37.76 C54.7866627,37.8316984 58.0933157,34.6912706 58.2271526,30.7062101 C58.3609895,26.7211495 55.27249,23.3659428 51.29,23.17 Z" id="Path" fill="#FFCE06"></path>
        </g>
        <g id="product-hunt-vector-logo" transform="translate(138.000000, 12.000000)" fill-rule="nonzero">
            <path d="M44,22 C44,34.1528 34.1528,44 22,44 C9.8472,44 0,34.1528 0,22 C0,9.8472 9.8472,0 22,0 C34.1528,0 44,9.8472 44,22" id="Path" fill="#DA552F"></path>
            <path d="M25.018723,23 L18.5607297,23 L18.5607297,16.4 L25.018723,16.4 C26.9068651,16.4 28.4392703,17.8784 28.4392703,19.7 C28.4392703,21.5216 26.9068651,23 25.018723,23 M25.018723,12 L14,12 L14,34 L18.5607297,34 L18.5607297,27.4 L25.018723,27.4 C29.4243879,27.4 33,23.9504 33,19.7 C33,15.4496 29.4335094,12 25.018723,12 L25.018723,12" id="Shape" fill="#FFFFFF"></path>
        </g>
        <g id="favorite-24px" transform="translate(89.000000, 20.000000)">
            <polygon id="Path" points="0 0 28 0 28 28 0 28"></polygon>
            <path d="M15,25 L13.26,23.4893733 C7.08,18.1449591 3,14.6201635 3,10.2942779 C3,6.76948229 5.904,4 9.6,4 C11.688,4 13.692,4.92697548 15,6.39182561 C16.308,4.92697548 18.312,4 20.4,4 C24.096,4 27,6.76948229 27,10.2942779 C27,14.6201635 22.92,18.1449591 16.74,23.5008174 L15,25 Z" id="Path" fill="#3E404E" fill-rule="nonzero"></path>
        </g>
    </g>
</svg>